HIERARCHY
ROOT Hips
{
  OFFSET -331.093 83.8371 -317.828
  CHANNELS 6 Xposition Yposition Zposition Zrotation Xrotation Yrotation
  JOINT LeftUpLeg
  {
    OFFSET 8.64259 1.95398 -2.38835
    CHANNELS 3 Zrotation Xrotation Yrotation
    JOINT LeftLeg
    {
      OFFSET 43.7702 0 0
      CHANNELS 3 Zrotation Xrotation Yrotation
      JOINT LeftFoot
      {
        OFFSET 40.6238 0 0
        CHANNELS 3 Zrotation Xrotation Yrotation
        JOINT LeftToeBase
        {
          OFFSET 12.7242 0 0
          CHANNELS 3 Zrotation Xrotation Yrotation
          End Site
          {
            OFFSET 0 0 0
          }
        }
      }
    }
  }
  JOINT RightUpLeg
  {
    OFFSET -8.2249 1.95398 -2.59336
    CHANNELS 3 Zrotation Xrotation Yrotation
    JOINT RightLeg
    {
      OFFSET 43.5653 0 0
      CHANNELS 3 Zrotation Xrotation Yrotation
      JOINT RightFoot
      {
        OFFSET 40.6238 0 0
        CHANNELS 3 Zrotation Xrotation Yrotation
        JOINT RightToeBase
        {
          OFFSET 12.7242 0 0
          CHANNELS 3 Zrotation Xrotation Yrotation
          End Site
          {
            OFFSET 0 0 0
          }
        }
      }
    }
  }
  JOINT Spine
  {
    OFFSET 0.165834 0.87714 6.61349
    CHANNELS 3 Zrotation Xrotation Yrotation
    JOINT Spine1
    {
      OFFSET 7.38963 1.71661e-005 0
      CHANNELS 3 Zrotation Xrotation Yrotation
      JOINT Spine2
      {
        OFFSET 11.9445 1.14441e-005 0
        CHANNELS 3 Zrotation Xrotation Yrotation
        JOINT Spine3
        {
          OFFSET 14.7254 4.19617e-005 0
          CHANNELS 3 Zrotation Xrotation Yrotation
          JOINT Spine4
          {
            OFFSET 10.9679 0 0
            CHANNELS 3 Zrotation Xrotation Yrotation
            JOINT RightShoulder
            {
              OFFSET 2.46616 -1.6653 3.69651
              CHANNELS 3 Zrotation Xrotation Yrotation
              JOINT RightArm
              {
                OFFSET 13.0012 0 0
                CHANNELS 3 Zrotation Xrotation Yrotation
                JOINT RightForeArm
                {
                  OFFSET 28.7848 1.62311e-005 0
                  CHANNELS 3 Zrotation Xrotation Yrotation
                  JOINT RightHand
                  {
                    OFFSET 26.5688 1.62095e-005 0
                    CHANNELS 3 Zrotation Xrotation Yrotation
                    End Site
                    {
                      OFFSET 0 0 0
                    }
                  }
                }
              }
            }
            JOINT LeftShoulder
            {
              OFFSET 2.38034 -1.29275 -3.7523
              CHANNELS 3 Zrotation Xrotation Yrotation
              JOINT LeftArm
              {
                OFFSET 16.3182 6.07031e-005 0
                CHANNELS 3 Zrotation Xrotation Yrotation
                JOINT LeftForeArm
                {
                  OFFSET 27.0901 0 0
                  CHANNELS 3 Zrotation Xrotation Yrotation
                  JOINT LeftHand
                  {
                    OFFSET 24.5451 1.51738e-005 0
                    CHANNELS 3 Zrotation Xrotation Yrotation
                    End Site
                    {
                      OFFSET 0 0 0
                    }
                  }
                }
              }
            }
            JOINT Neck
            {
              OFFSET 5.0226 -0.0266342 0
              CHANNELS 3 Zrotation Xrotation Yrotation
              JOINT Head
              {
                OFFSET 6.69364 2.86102e-005 0
                CHANNELS 3 Zrotation Xrotation Yrotation
                End Site
                {
                  OFFSET 0 0 0
                }
              }
            }
          }
        }
      }
    }
  }
}
MOTION
Frames:	18
Frame Time:	0.0416667
-5.28091 99.2229 0.0683618 88.9298 -38.3337 89.2167 -176.277 5.86493 88.6082 -11.0346 8.2398 -0.742139 62.7655 1.57412 1.91985 30.8632 1.02248 -2.15523 173.457 4.41587 92.2668 -11.3042 -7.1481 -1.8452 65.605 -2.60498 -1.43441 24.8622 0.0332498 -0.415453 -0.0777651 6.69396 -89.9491 13.4633 -0.129555 0.118633 1.79235 -0.124238 0.124217 -20.7429 -0.159241 0.0660267 -0.73021 -0.159223 0.0660255 90.0447 -41.7984 -102.432 32.2466 -18.9558 0.240906 -9.19817 -14.4674 -40.0379 -5.68072 -0.520719 5.17939 -101.413 -51.7427 63.1826 -19.037 16.3924 0.124195 6.58406 21.7359 -33.2012 11.1814 0.926271 4.1707 7.88947 -2.78738 2.32755 -8.84892 -3.11438 -1.80132 
-5.2805 99.2103 0.0319598 88.8738 -38.1954 89.1977 -176.335 6.16115 88.5468 -11.3785 9.55177 -0.788573 62.7432 2.04252 3.15986 30.0514 0.772691 -0.723254 173.552 4.52687 92.3153 -11.4212 -7.08123 -1.89414 65.6978 -2.69267 -1.47962 26.316 0.00235832 -0.424976 -0.0878085 6.69397 -89.9501 13.4762 -0.149978 0.119196 1.80524 -0.144587 0.125676 -20.73 -0.178866 0.0702358 -0.717318 -0.178872 0.0702342 90.2009 -42.0184 -102.108 31.9077 -18.8364 -0.207629 -9.05114 -15.4533 -39.8018 -4.69537 -0.405256 3.75359 -101.39 -51.7618 63.2227 -18.9595 16.2233 -0.00937486 5.47217 19.3574 -32.9767 11.1936 0.912623 4.04744 7.89912 -2.71733 2.09141 -9.03616 -3.00188 -1.67352 
-5.24453 99.2431 0.0101208 88.8464 -38.0658 89.1807 -176.342 6.19889 88.5317 -11.3967 9.56187 -0.794148 62.5085 1.86045 3.04914 30.4909 1.09864 -0.697475 173.573 4.73141 92.3072 -11.7447 -6.86972 -1.91897 65.5023 -2.55703 -1.41227 27.4116 -0.0321948 -0.532785 -0.0917413 6.69392 -89.9438 13.4789 -0.154742 0.132474 1.80796 -0.14878 0.139153 -20.7272 -0.187402 0.0798448 -0.714606 -0.187419 0.0798369 90.1686 -42.11 -102.138 31.8541 -18.4236 -0.0631485 -8.77393 -15.3613 -40.0089 -3.81249 -0.338137 3.59305 -101.201 -51.5953 63.4265 -19.2745 16.2724 0.00350917 4.67357 17.7123 -32.7802 11.4879 0.969777 4.33743 7.68485 -2.75889 1.45768 -8.91082 -2.96231 -0.816495 
-5.18073 99.2127 -0.0474018 88.9538 -38.0011 89.2756 -176.35 6.12073 88.5082 -11.5016 9.13826 -0.744653 62.6691 1.78833 2.62864 30.876 1.25472 -1.22183 173.538 4.60577 92.2835 -11.7194 -6.72931 -1.90369 65.7381 -2.70817 -1.48993 26.9805 0.0151815 -0.156154 -0.0882601 6.70461 -89.9501 13.4657 -0.150871 0.11935 1.79478 -0.145462 0.125866 -20.7404 -0.179764 0.0684888 -0.727789 -0.179763 0.0684941 90.071 -42.223 -102.27 31.8394 -18.1269 0.283079 -9.16386 -15.228 -40.2611 -3.67777 -0.329897 3.65298 -101.305 -51.7156 63.3244 -19.2693 16.349 0.094996 4.92439 18.0833 -32.9023 11.3618 0.945443 4.21621 7.38689 -2.78097 1.42338 -8.61845 -2.97087 -0.903705 
-5.12095 99.2088 -0.174909 88.8486 -37.7558 89.096 -176.47 6.31864 88.2801 -11.5747 9.74235 -0.775026 62.4339 1.97896 3.26253 30.8345 1.27448 -1.02262 173.365 4.85885 92.0609 -11.9601 -6.83437 -1.83458 65.7108 -2.65207 -1.46395 27.3705 -0.00716425 -0.300009 -0.103693 6.70296 -89.9275 13.4681 -0.170546 0.167031 1.79713 -0.163012 0.174369 -20.7381 -0.21285 0.108049 -0.725425 -0.212853 0.10805 90.0723 -42.3209 -102.241 31.6574 -18.175 -0.144814 -8.75968 -15.2473 -39.4972 -3.82417 -0.333917 3.28509 -101.189 -51.521 63.4158 -19.4039 16.2687 -0.0872147 4.82017 18.0299 -32.7435 11.3597 0.94111 4.18185 7.27669 -2.78544 0.993989 -8.41812 -2.90813 -0.555941 
-5.03407 99.2006 -0.383529 88.7887 -37.6082 89.0559 -176.52 6.54278 88.1856 -11.9125 9.10376 -0.746006 62.6798 1.75453 2.20734 31.1094 1.44567 -1.1416 173.384 5.22969 91.9528 -12.5235 -6.89522 -1.90382 65.7951 -2.62718 -1.45518 27.5244 -0.0471041 -0.644057 -0.109733 6.70365 -89.9118 13.4667 -0.174897 0.199051 1.79579 -0.165985 0.206555 -20.7394 -0.226651 0.137287 -0.726745 -0.226648 0.137283 89.9454 -42.3309 -102.449 31.9989 -17.7268 0.417556 -9.48033 -15.3061 -40.4039 -3.79221 -0.34222 3.87461 -101.019 -51.3081 63.577 -19.4626 16.4055 -0.307181 4.58413 17.8594 -32.4927 11.5657 0.979331 4.36566 7.21897 -2.76448 0.758939 -8.42269 -2.83939 -0.560968 
-5.05234 99.1747 -0.722868 89.0767 -37.7355 89.0547 -176.654 7.00987 87.821 -13.016 7.97741 -0.664423 63.2639 1.81436 1.63536 29.4344 0.204817 -1.24326 173.531 5.4978 91.7395 -13.181 -6.98306 -2.18151 65.933 -2.7434 -1.51621 27.5461 -0.0214071 -0.400142 -0.117274 6.72981 -89.8925 13.4144 -0.180638 0.238225 1.74346 -0.169982 0.245941 -20.7917 -0.24389 0.172921 -0.779044 -0.243882 0.172923 89.7965 -42.5197 -102.645 31.5581 -17.7503 0.117101 -8.93366 -15.0488 -39.8498 -3.86485 -0.342032 3.57047 -101.01 -51.3606 63.6086 -19.4883 16.2952 -0.365364 4.58381 18.0479 -32.2968 11.6923 0.948157 4.03458 7.08598 -2.751 0.692664 -8.50453 -2.81088 -0.580484 
-5.15634 99.0741 -1.23947 89.6828 -37.6371 89.4627 -176.86 7.53787 87.5474 -14.4789 8.20946 -0.531254 62.7686 1.83192 1.9648 31.1334 1.41329 -1.35604 173.753 6.32553 91.6654 -15.2334 -7.12285 -2.45529 66.0436 -2.6636 -1.4901 28.3914 -0.122934 -1.12856 -0.160689 6.81598 -89.9015 13.2422 -0.27105 0.231072 1.57123 -0.260623 0.242774 -20.9641 -0.327977 0.138922 -0.951432 -0.327966 0.138925 89.8952 -42.2237 -102.564 31.6171 -17.7015 0.0985852 -9.27946 -15.119 -40.6459 -3.35071 -0.307829 3.79627 -101.216 -51.518 63.3756 -19.2548 16.2321 -0.21768 4.8587 17.7358 -32.9223 11.2951 0.874912 3.67424 6.88062 -2.75047 0.878001 -7.71319 -2.8238 -1.10478 
-5.53724 98.9601 -1.99431 90.031 -37.8525 89.7581 -176.877 9.58133 87.2971 -17.7779 7.17783 -0.539955 63.299 1.84633 1.50685 29.7861 0.523702 -0.96203 174.466 7.61004 91.8347 -17.1981 -6.85368 -2.96604 65.9951 -2.68671 -1.50776 28.7634 -0.20365 -1.72941 -0.186219 6.91984 -89.8776 13.0345 -0.310707 0.282935 1.36361 -0.297969 0.296334 -21.1717 -0.381389 0.176469 -1.15909 -0.381393 0.176476 89.8812 -42.6064 -102.48 31.0781 -17.6822 -0.384305 -9.33056 -14.9754 -40.9607 -3.78091 -0.34593 4.25991 -101.273 -51.2996 63.2152 -18.9823 15.8917 -0.593174 5.34863 18.1574 -33.1638 10.4688 0.791089 3.45232 6.32465 -2.7975 0.170139 -5.81805 -2.75376 -0.83613 
-6.22641 98.6595 -2.9821 90.1485 -38.8328 90.3913 -176.644 11.515 87.632 -20.1456 7.86232 -0.751211 62.3146 1.88946 2.9082 32.6636 2.43102 -1.71659 175.806 10.106 92.6345 -20.4464 -5.96145 -3.60227 65.392 -2.303 -1.32291 30.1515 -0.235731 -1.6183 -0.155781 7.07122 -89.8858 12.7318 -0.254698 0.258497 1.06081 -0.243068 0.269455 -21.4744 -0.32062 0.169997 -1.46179 -0.320624 0.169997 89.8963 -42.134 -102.587 31.0493 -17.9319 -1.0543 -9.32804 -14.8131 -41.7892 -5.10508 -0.447432 4.26808 -100.895 -50.9746 63.6275 -18.7466 15.3009 -0.712533 6.01653 17.3843 -34.4573 10.4074 0.786801 3.45227 7.20618 -2.85483 0.258464 -5.31117 -2.79247 -2.03996 
-7.28117 98.5282 -4.1818 89.1972 -40.3681 90.3799 -176.265 14.4477 88.291 -22.2478 7.36008 -1.05482 61.6145 1.03268 2.28696 32.95 2.74078 -1.34097 177.035 13.8446 93.3419 -23.4288 -5.682 -3.85093 63.5721 -1.41846 -0.844523 30.9392 -0.436753 -3.026 -0.0630496 7.17769 -89.8625 12.5185 -0.0596485 0.281342 0.847471 -0.0472058 0.283687 -21.6875 -0.141443 0.250406 -1.67484 -0.141434 0.250408 89.4352 -42.7062 -103.192 29.7998 -17.7653 -2.11886 -8.72987 -12.8133 -41.9994 -5.22795 -0.395326 2.47578 -100.512 -50.4604 63.9822 -18.8483 14.3639 -0.0328475 6.42491 14.6252 -37.0415 12.1562 0.981808 4.01026 6.86513 -2.97738 -0.49397 -2.34551 -2.81519 -2.20618 
-8.3088 98.4159 -5.38636 88.3278 -42.0211 90.8408 -175.756 16.8391 89.3744 -23.4914 8.15696 -1.50242 60.7441 0.621904 3.32483 32.5266 2.80458 0.0614985 177.827 15.7821 94.2058 -23.7548 -6.36592 -3.60945 62.7628 -1.27897 -0.738081 34.7383 -1.38645 -7.33343 0.0212869 7.28082 -89.8968 12.3121 0.0914199 0.195765 0.641131 0.099929 0.191546 -21.8939 0.0283539 0.214191 -1.88127 0.0283348 0.214176 89.083 -42.5408 -103.825 29.1668 -17.6466 -3.35579 -8.52594 -10.7656 -44.117 -6.60364 -0.4276 1.44777 -100.146 -50.1039 64.3752 -19.0506 13.784 1.74136 5.97037 10.7948 -40.096 13.7121 1.08774 3.96168 6.55527 -2.69719 -0.268724 0.00801125 -2.6385 -2.93103 
-9.35674 98.3541 -6.25675 87.9123 -42.0028 91.1978 -175.468 18.277 90.1093 -23.7129 8.44725 -1.76301 60.4654 0.373735 3.3052 30.9745 1.43298 -0.793173 177.907 15.8554 94.6998 -24.2337 -4.94962 -3.35002 64.1324 -2.09409 -1.19167 41.0539 -2.15238 -8.44413 -0.0168276 7.34251 -89.8974 12.1888 0.0151535 0.203035 0.51783 0.0240604 0.202166 -22.0172 -0.046563 0.198201 -2.00456 -0.0465759 0.198198 89.0876 -42.5105 -103.826 28.7641 -17.2476 -4.69497 -8.44632 -9.30393 -47.1523 -7.41665 -0.495525 2.04629 -99.7612 -49.6179 64.7511 -19.2301 14.5466 3.17611 4.63826 8.14439 -41.2682 16.6393 1.32258 4.05418 5.11768 -2.53514 -0.497351 2.16748 -2.493 -2.79988 
-10.3738 98.3463 -7.13401 87.3257 -41.9072 90.7344 -175.394 19.4182 90.1045 -23.102 8.15728 -2.077 59.8373 -0.186435 3.00137 29.695 0.634465 -0.180689 177.68 16.5408 94.5385 -30.6031 -1.25611 -3.40613 65.7071 -2.74589 -1.59549 42.2036 -1.84667 -6.70533 0.034879 7.31751 -89.8647 12.2387 0.133521 0.255359 0.567753 0.144633 0.249226 -21.9672 0.0505974 0.283679 -1.95457 0.0505959 0.283676 89.3801 -41.9219 -103.512 28.3816 -16.9668 -6.25727 -8.73339 -9.07528 -49.0344 -8.08041 -0.524888 1.82651 -99.8526 -49.6717 64.6389 -19.3573 14.6842 4.80614 4.47927 7.54411 -42.0719 15.7041 1.37286 4.80808 4.1265 -2.65205 0.00651603 2.57962 -2.70635 -2.64177 
-11.2991 98.3685 -7.92632 88.2606 -41.5132 91.0579 -175.187 19.2849 90.0335 -22.4699 7.51557 -2.31825 58.803 -1.479 1.30319 30.3362 0.871727 -1.19095 177.103 15.0925 94.0981 -39.1219 0.0401643 -3.64822 67.161 -3.24516 -1.9376 37.8038 -2.0079 -9.31312 0.122251 7.3738 -89.7873 12.1256 0.343679 0.386469 0.4546 0.360352 0.370971 -22.0803 0.21163 0.471889 -2.06761 0.211629 0.47189 89.5038 -42.0101 -103.279 27.6641 -16.5994 -7.94406 -9.85385 -9.4159 -50.5652 -9.32696 -0.614192 2.06414 -99.5376 -49.5288 65.042 -20.0488 14.2117 6.42026 4.71121 8.14261 -41.6054 16.3069 1.41687 4.77492 3.81495 -2.9919 0.39126 2.35297 -3.11704 -3.05145 
-12.4359 98.2371 -8.77918 88.8239 -41.3746 91.1155 -175.19 19.4801 89.8669 -21.7871 8.33387 -2.52185 57.679 -1.99454 1.7493 30.0665 0.734049 -0.938416 176.643 13.4229 93.2715 -46.6907 -0.539765 -3.86148 65.1417 -2.27286 -1.49116 36.6298 -1.69322 -8.25944 0.274212 7.38075 -89.7531 12.111 0.661819 0.419755 0.440177 0.679674 0.390209 -22.0953 0.505067 0.599252 -2.08265 0.505102 0.599264 89.5769 -41.4418 -103.322 26.9524 -16.6637 -9.68685 -9.08113 -8.07857 -50.8749 -8.21186 -0.509613 1.56611 -99.4005 -49.6598 65.2879 -20.9147 13.2396 8.10634 3.74732 7.41641 -40.4039 17.2914 1.44883 4.49845 3.67041 -3.30134 0.579653 2.74317 -3.45954 -2.98777 
-13.8511 97.9146 -9.69784 89.6154 -41.0759 90.7705 -175.2 19.86 89.2318 -21.6511 8.55194 -2.81156 57.3385 -2.29521 1.44171 28.7337 -0.110212 -0.349562 175.906 10.5886 91.6045 -51.0919 -2.93564 -4.1546 61.4826 -0.542546 -0.520949 40.749 -1.66106 -6.40939 0.415758 7.3509 -89.6769 12.1698 0.979366 0.536141 0.499105 1.00198 0.492518 -22.0372 0.772963 0.805697 -2.02452 0.772955 0.8057 89.3132 -40.6067 -104.017 26.9817 -16.0983 -10.6367 -10.1036 -8.84541 -50.6871 -8.32027 -0.557536 2.17382 -99.2674 -49.7021 65.4958 -22.4123 12.0378 10.6388 3.02901 6.55413 -39.8655 18.4612 1.52452 4.39859 3.54295 -3.63802 0.748117 2.55561 -3.80484 -2.75652 
-15.4988 97.5072 -10.8772 89.9068 -41.1825 90.0097 -175.344 20.6201 88.5096 -21.191 8.28161 -3.06503 57.3723 -2.39107 1.20941 25.9589 -2.04266 0.191746 175.017 7.81391 89.7748 -52.5739 -6.57938 -4.51616 58.4147 0.969103 0.441149 39.2684 -1.61604 -6.68549 0.605529 7.28057 -89.6183 12.3093 1.38456 0.605904 0.638983 1.40989 0.544361 -21.8993 1.13841 0.994028 -1.8867 1.13844 0.994028 90.0911 -39.9672 -102.878 26.2535 -16.4664 -12.6123 -10.5946 -10.3397 -49.698 -8.64667 -0.576572 2.06806 -99.0631 -49.6825 65.7845 -23.7133 11.258 12.8206 3.10692 6.89635 -39.4551 16.5484 1.26943 3.78291 3.64868 -3.88903 0.797386 2.21439 -4.02965 -2.13372 
